<?xml version="1.0" encoding="utf-8"?>
<!-- Generator: Adobe Illustrator 21.1.0, SVG Export Plug-In . SVG Version: 6.00 Build 0)  -->
<svg version="1.1" id="Deton" xmlns="http://www.w3.org/2000/svg" xmlns:xlink="http://www.w3.org/1999/xlink" x="0px" y="0px"
	 viewBox="0 0 600 72" style="enable-background:new 0 0 600 72;" xml:space="preserve">
<style type="text/css">
	.st0{fill:#020203;}
	.st1{fill:#7F8080;}
	.st2{fill:url(#SVGID_1_);}
	.st3{fill:url(#SVGID_2_);}
	.st4{fill:url(#SVGID_3_);}
	.st5{fill:url(#SVGID_4_);}
	.st6{fill:url(#SVGID_5_);}
	.st7{fill:url(#SVGID_6_);}
	.st8{fill:url(#SVGID_7_);}
	.st9{fill:url(#SVGID_8_);}
	.st10{fill:url(#SVGID_9_);}
	.st11{fill:url(#SVGID_10_);}
	.st12{fill:url(#SVGID_11_);}
	.st13{fill:url(#SVGID_12_);}
	.st14{fill:url(#SVGID_13_);}
	.st15{fill:url(#SVGID_14_);}
</style>
<g>
	<path class="st0" d="M364.5,60.6c-0.1-0.1-0.2-0.1-0.3-0.1c-5.8-0.3-11.6-1.1-17.1-3.2c-3.9-1.5-7.4-3.5-10.4-6.4
		c-3.1-3-5.1-6.6-5.9-10.8c-1.3-7.7,0.9-14.2,6.7-19.4c1.1-1,2.3-1.9,3.6-2.7c0.1-0.1,0.2-0.1,0.3-0.2c-0.1,0-0.2,0-0.4,0
		c-12.5,0-25.1,0-37.6,0c-0.3,0-0.4,0.1-0.4,0.4c0,13.2,0,26.4,0,39.6c0,0.3-0.1,0.4-0.4,0.4c-3.7,0-7.5,0-11.2,0
		c-0.4,0-0.4-0.1-0.4-0.4c0-13.2,0-26.4,0-39.6c0-0.5,0-0.5-0.5-0.5c-6,0-12,0-18.1,0c-0.3,0-0.4-0.1-0.4-0.4c0-1.8,0-3.5,0-5.3
		c0-0.1,0-0.3,0-0.4c0.2,0,0.3,0,0.5,0c53.3,0,106.6,0,160,0c0.2,0,0.3,0,0.5,0c2.4,1.5,4.8,3,7.1,4.5
		c16.1,10.2,32.2,20.4,48.3,30.5c0.1,0.1,0.2,0.2,0.4,0.2c0-0.1,0-0.3,0-0.4c0-11.5,0-22.9,0-34.4c0-0.1,0-0.3,0-0.4
		c3.3,0,6.6,0,9.9,0c0.7,0,1.4,0,2.1,0c0,0.1,0,0.2,0,0.2c0,15.3,0,30.6,0,46c0,0.3-0.1,0.4-0.4,0.4c-4.5,0-9,0-13.4,0
		c-0.4,0-0.6-0.1-0.9-0.3c-18.3-11.7-36.6-23.4-54.9-35.1c-0.1-0.1-0.2-0.2-0.4-0.2c0,0.2,0,0.3,0,0.5c0,11.6,0,23.1,0,34.7
		c0,0.3-0.1,0.4-0.4,0.4c-3.7,0-7.5,0-11.2,0c-0.5,0-0.5,0-0.5-0.5c0-13.2,0-26.4,0-39.6c0-0.2,0-0.4-0.3-0.4c-8,0-16.1,0-24.1,0
		c-0.1,0-0.2-0.1-0.2,0.1c1.4,0.9,2.7,1.8,3.9,2.9c6.1,5.7,8.2,12.6,6.4,20.7c-1,4.3-3.5,7.8-6.8,10.7c-3.1,2.7-6.7,4.4-10.5,5.7
		c-5.1,1.7-10.4,2.5-15.8,2.7c-0.1,0-0.3-0.1-0.4,0.1c-0.2,0-0.4,0-0.6,0c-0.4-0.1-0.9,0-1.3,0c-0.8,0-1.6,0-2.4,0
		c-0.5,0-0.9-0.1-1.4,0C365,60.6,364.7,60.6,364.5,60.6z M368.4,54.6c2.3,0,4.8-0.3,7.3-0.8c3.3-0.7,6.5-1.9,9.4-3.8
		c4.4-2.9,7.2-6.9,7.7-12.3c0.2-2.6,0-5.1-1-7.5c-1.4-3.6-3.9-6.3-7.2-8.3c-3.8-2.3-7.9-3.5-12.2-4c-4.1-0.5-8.2-0.4-12.3,0.5
		c-3.6,0.7-7,2-10,4.1c-5.7,3.9-8,9.4-7.1,16.2c0.4,3.4,2,6.3,4.4,8.7c2.5,2.5,5.6,4.2,8.9,5.4C360.1,54.2,364.1,54.7,368.4,54.6z"
		/>
	<path class="st0" d="M268.3,11.7c0.1,0.2,0,0.4,0,0.6c0,1.7,0,3.4,0,5.1c0,0.3-0.1,0.4-0.4,0.4c-20.6,0-41.1,0-61.7,0
		c-0.4,0-0.4,0.1-0.4,0.5c0,4.2,0,8.4,0,12.6c0,0.3,0.1,0.4,0.4,0.4c8.7,0,17.5,0,26.2,0c0.5,0,0.5,0,0.5,0.5c0,1.7,0,3.4,0,5.2
		c0,0.3-0.1,0.4-0.4,0.4c-8.8,0-17.5,0-26.3,0c-0.3,0-0.4,0.1-0.4,0.4c0,4.7,0,9.4,0,14.1c0,0.5,0,0.5,0.4,0.5c26.9,0,53.7,0,80.6,0
		c0.4,0,0.4,0.1,0.4,0.5c0,1.8,0,3.5,0,5.3c0,0.3-0.1,0.4-0.4,0.4c-21.7,0-43.3,0-65,0c-9.3,0-18.6,0-27.9,0c-0.3,0-0.4-0.1-0.4-0.4
		c0-13.2,0-26.4,0-39.7c0-0.3-0.1-0.4-0.4-0.4c-8,0-16.1,0-24.2,0c0.1,0.2,0.2,0.2,0.3,0.3c2.6,1.7,5,3.7,6.9,6.2
		c2.4,3.4,3.7,7.1,3.5,11.2c-0.1,4.2-1.7,7.7-4.4,10.9c-2.6,3.2-5.9,5.5-9.6,7.3c-3.8,1.8-7.9,3-12,3.7c-3.5,0.6-7,0.8-10.6,0.8
		c-14.9,0-29.9,0-44.8,0c-0.2,0-0.3,0-0.5,0c0-15.5,0-31.1,0-46.6c56.7,0,113.3,0,170,0C268,11.7,268.1,11.7,268.3,11.7z
		 M127.3,17.8C127.3,17.8,127.3,17.7,127.3,17.8c-5.7,0-11.4,0-17.1,0c-0.3,0-0.4,0.1-0.4,0.4c0,11.2,0,22.4,0,33.6
		c0,0.3,0.1,0.4,0.4,0.4c9.3,0,18.5,0,27.8,0c1.6,0,3.2,0,4.8-0.1c3.3-0.1,6.6-0.6,9.8-1.5c3.1-0.9,6.1-2.1,8.7-4.1
		c5-3.8,6.9-8.9,5.7-15.1c-0.7-3.4-2.6-6-5.2-8.1c-2.4-1.9-5.2-3.1-8.2-4c-4-1.1-8.1-1.5-12.2-1.6C136.7,17.7,132,17.8,127.3,17.8z"
		/>
	<path class="st1" d="M268.3,11.7c-0.2,0-0.3,0-0.5,0c-56.7,0-113.3,0-170,0c0,0,0-0.1,0-0.1c0.1,0,0.2,0,0.3,0
		C154.9,11.6,211.6,11.6,268.3,11.7C268.3,11.6,268.3,11.6,268.3,11.7z"/>
	<path class="st1" d="M433,11.6C433,11.6,433,11.6,433,11.6c-0.1,0.1-0.3,0.1-0.4,0.1c-53.3,0-106.6,0-160,0c-0.2,0-0.3,0-0.5,0
		c0,0,0,0,0-0.1C325.7,11.6,379.4,11.6,433,11.6z"/>
	<path class="st1" d="M488.8,11.7C488.8,11.6,488.8,11.6,488.8,11.7c4-0.1,8.1-0.1,12.1-0.1c0,0,0,0.1,0,0.1c-0.7,0-1.4,0-2.1,0
		C495.4,11.7,492.1,11.7,488.8,11.7z"/>
	<path class="st1" d="M365.2,60.6c0.5-0.1,0.9,0,1.4,0C366.1,60.6,365.6,60.6,365.2,60.6z"/>
	<path class="st1" d="M369,60.6c0.4,0,0.9-0.1,1.3,0C369.9,60.6,369.5,60.6,369,60.6z"/>
</g>
<g>
	<g>
		
			<linearGradient id="SVGID_1_" gradientUnits="userSpaceOnUse" x1="0.5035" y1="17.8987" x2="52.8407" y2="17.8987" gradientTransform="matrix(1 0 0 -1 0 74)">
			<stop  offset="0" style="stop-color:#A3897B"/>
			<stop  offset="0.6" style="stop-color:#FDD69D"/>
			<stop  offset="1" style="stop-color:#B89E56"/>
		</linearGradient>
		<polygon class="st2" points="52,64 3.2,40.2 0.5,42.7 52.8,72 52,64 		"/>
		<g>
			<g>
				
					<linearGradient id="SVGID_2_" gradientUnits="userSpaceOnUse" x1="23.0914" y1="53.1131" x2="48.1853" y2="53.1131" gradientTransform="matrix(1 0 0 -1 0 74)">
					<stop  offset="0" style="stop-color:#A3897B"/>
					<stop  offset="0.6" style="stop-color:#FDD69D"/>
					<stop  offset="1" style="stop-color:#B89E56"/>
				</linearGradient>
				<polygon class="st3" points="48.1,26.3 48.2,26.2 47.7,21.9 28.5,19.1 28.9,18.7 47.6,21.2 47.7,21.2 47.3,17.1 29.9,15.5 
					23.1,21.8 				"/>
				
					<linearGradient id="SVGID_3_" gradientUnits="userSpaceOnUse" x1="16.4119" y1="44.6769" x2="49.2166" y2="44.6769" gradientTransform="matrix(1 0 0 -1 0 74)">
					<stop  offset="0" style="stop-color:#A3897B"/>
					<stop  offset="0.6" style="stop-color:#FDD69D"/>
					<stop  offset="1" style="stop-color:#B89E56"/>
				</linearGradient>
				<polygon class="st4" points="49.1,36.4 49.2,36.4 48.8,32.5 21.6,26 22,25.5 48.6,31.4 48.7,31.3 48.3,27.2 22.7,22.2 16.4,28 
									"/>
				
					<linearGradient id="SVGID_4_" gradientUnits="userSpaceOnUse" x1="30.1661" y1="61.354" x2="47.207" y2="61.354" gradientTransform="matrix(1 0 0 -1 0 74)">
					<stop  offset="0" style="stop-color:#A3897B"/>
					<stop  offset="0.6" style="stop-color:#FDD69D"/>
					<stop  offset="1" style="stop-color:#B89E56"/>
				</linearGradient>
				<polygon class="st5" points="47.2,16.6 46.9,13.1 35.3,12.3 35.5,12.1 46.8,12.8 46.4,8.8 37.3,8.6 30.2,15.3 47.1,16.7 				"/>
				
					<linearGradient id="SVGID_5_" gradientUnits="userSpaceOnUse" x1="9.6649" y1="35.5613" x2="50.4262" y2="35.5613" gradientTransform="matrix(1 0 0 -1 0 74)">
					<stop  offset="0" style="stop-color:#A3897B"/>
					<stop  offset="0.6" style="stop-color:#FDD69D"/>
					<stop  offset="1" style="stop-color:#B89E56"/>
				</linearGradient>
				<polygon class="st6" points="49.9,43.6 15.2,32.4 15.5,32 49.5,42.2 49.8,42.1 49.4,37.8 16,28.4 9.7,34.2 50,48.5 50.4,48.3 
					49.9,43.6 				"/>
				
					<linearGradient id="SVGID_6_" gradientUnits="userSpaceOnUse" x1="37.6022" y1="69.2865" x2="46.3732" y2="69.2865" gradientTransform="matrix(1 0 0 -1 0 74)">
					<stop  offset="0" style="stop-color:#A3897B"/>
					<stop  offset="0.6" style="stop-color:#FDD69D"/>
					<stop  offset="1" style="stop-color:#B89E56"/>
				</linearGradient>
				<polygon class="st7" points="46.4,8.5 46,4.9 42.7,4.9 43,4.6 45.9,4.6 46,4.6 45.6,1 37.6,8.4 				"/>
			</g>
			
				<linearGradient id="SVGID_7_" gradientUnits="userSpaceOnUse" x1="3.3517" y1="25.477" x2="51.8624" y2="25.477" gradientTransform="matrix(1 0 0 -1 0 74)">
				<stop  offset="0" style="stop-color:#A3897B"/>
				<stop  offset="0.6" style="stop-color:#FDD69D"/>
				<stop  offset="1" style="stop-color:#B89E56"/>
			</linearGradient>
			<polygon class="st8" points="9.1,38.5 9.3,38.2 51.1,55.4 51.1,55.3 50.6,49.7 50.4,49.9 9.4,34.5 3.4,40.1 51.6,62.6 51.9,62.4 
				51.3,56.7 			"/>
		</g>
	</g>
	<g>
		
			<linearGradient id="SVGID_8_" gradientUnits="userSpaceOnUse" x1="51.284" y1="20.0794" x2="84.1658" y2="20.0794" gradientTransform="matrix(1 0 0 -1 0 74)">
			<stop  offset="0.2054" style="stop-color:#FDD69D"/>
			<stop  offset="0.5838" style="stop-color:#A3897B"/>
			<stop  offset="1" style="stop-color:#B89E56"/>
		</linearGradient>
		<polygon class="st9" points="51.5,56.8 51.3,56.7 51.9,62.4 78.7,40.8 78.9,41 52,64 52.8,72 84.2,41.3 78.9,35.8 		"/>
		<g>
			
				<linearGradient id="SVGID_9_" gradientUnits="userSpaceOnUse" x1="46.8503" y1="57.3636" x2="61.8961" y2="57.3636" gradientTransform="matrix(1 0 0 -1 0 74)">
				<stop  offset="0.2054" style="stop-color:#FDD69D"/>
				<stop  offset="0.5838" style="stop-color:#A3897B"/>
				<stop  offset="1" style="stop-color:#B89E56"/>
			</linearGradient>
			<polygon class="st10" points="47.3,17.1 47.7,21.2 61.9,18 56.2,12.1 47.2,13.1 46.9,13.1 47.2,16.6 56.7,15.3 56.9,15.7 
				47.5,17.1 			"/>
			
				<linearGradient id="SVGID_10_" gradientUnits="userSpaceOnUse" x1="47.7419" y1="49.1468" x2="67.896" y2="49.1468" gradientTransform="matrix(1 0 0 -1 0 74)">
				<stop  offset="0.2054" style="stop-color:#FDD69D"/>
				<stop  offset="0.5838" style="stop-color:#A3897B"/>
				<stop  offset="1" style="stop-color:#B89E56"/>
			</linearGradient>
			<polygon class="st11" points="48.3,27.2 48.7,31.3 67.9,24.3 62.3,18.4 48,21.9 47.7,21.9 48.2,26.2 62.4,22 62.9,22.5 
				48.5,27.2 			"/>
			
				<linearGradient id="SVGID_11_" gradientUnits="userSpaceOnUse" x1="46.0166" y1="65.1949" x2="56.0021" y2="65.1949" gradientTransform="matrix(1 0 0 -1 0 74)">
				<stop  offset="0.2054" style="stop-color:#FDD69D"/>
				<stop  offset="0.5838" style="stop-color:#A3897B"/>
				<stop  offset="1" style="stop-color:#B89E56"/>
			</linearGradient>
			<polygon class="st12" points="46.4,8.8 46.8,12.8 46.9,12.8 56,11.8 49.3,4.8 46.3,4.9 46,4.9 46.4,8.5 46.4,8.5 50.4,8.2 
				50.7,8.5 46.8,8.8 			"/>
			
				<linearGradient id="SVGID_12_" gradientUnits="userSpaceOnUse" x1="49.9491" y1="31.13" x2="78.7153" y2="31.13" gradientTransform="matrix(1 0 0 -1 0 74)">
				<stop  offset="0.2054" style="stop-color:#FDD69D"/>
				<stop  offset="0.5838" style="stop-color:#A3897B"/>
				<stop  offset="1" style="stop-color:#B89E56"/>
			</linearGradient>
			<polygon class="st13" points="49.9,43.6 50.4,48.3 73.4,34.7 73.7,35 50.6,49.7 51.1,55.3 78.7,35.6 73.7,30.4 			"/>
			
				<linearGradient id="SVGID_13_" gradientUnits="userSpaceOnUse" x1="45.6118" y1="71.2142" x2="49.0142" y2="71.2142" gradientTransform="matrix(1 0 0 -1 0 74)">
				<stop  offset="0.2054" style="stop-color:#FDD69D"/>
				<stop  offset="0.5838" style="stop-color:#A3897B"/>
				<stop  offset="1" style="stop-color:#B89E56"/>
			</linearGradient>
			<polygon class="st14" points="49,4.5 45.6,1 46,4.6 			"/>
			
				<linearGradient id="SVGID_14_" gradientUnits="userSpaceOnUse" x1="48.8214" y1="40.5926" x2="73.4141" y2="40.5926" gradientTransform="matrix(1 0 0 -1 0 74)">
				<stop  offset="0.2054" style="stop-color:#FDD69D"/>
				<stop  offset="0.5838" style="stop-color:#A3897B"/>
				<stop  offset="1" style="stop-color:#B89E56"/>
			</linearGradient>
			<polygon class="st15" points="68.3,24.7 48.9,32.5 48.8,32.5 49.2,36.4 68,28.4 68.4,28.9 49.4,37.8 49.4,37.8 49.8,42.1 
				73.4,30.1 			"/>
		</g>
	</g>
</g>
<g>
	<path d="M521.7,16.4c0,1.3-0.4,2.4-1.2,3.3c-0.8,0.9-1.9,1.5-3.3,1.9v0.1c1.7,0.2,2.9,0.7,3.8,1.5s1.3,1.9,1.3,3.3
		c0,2-0.7,3.5-2.2,4.7c-1.4,1.1-3.5,1.7-6.2,1.7c-2.3,0-4.2-0.4-6-1.1v-3.7c0.8,0.4,1.7,0.7,2.7,1c1,0.3,1.9,0.4,2.9,0.4
		c1.4,0,2.5-0.2,3.2-0.7c0.7-0.5,1-1.3,1-2.4c0-1-0.4-1.7-1.2-2.1c-0.8-0.4-2.1-0.6-3.8-0.6h-1.6v-3.4h1.6c1.6,0,2.8-0.2,3.5-0.6
		c0.7-0.4,1.1-1.1,1.1-2.2c0-1.6-1-2.4-3-2.4c-0.7,0-1.4,0.1-2.1,0.3c-0.7,0.2-1.5,0.6-2.3,1.2l-2-3c1.9-1.4,4.1-2,6.8-2
		c2.1,0,3.8,0.4,5.1,1.3C521.1,13.6,521.7,14.8,521.7,16.4z"/>
	<path d="M543.2,21.9c0,3.4-1,6-2.9,7.8c-1.9,1.8-4.7,2.7-8.4,2.7H526V11.8h6.5c3.4,0,6,0.9,7.9,2.7S543.2,18.7,543.2,21.9z
		 M538.7,22c0-4.5-2-6.7-5.9-6.7h-2.3v13.5h1.9C536.6,28.9,538.7,26.6,538.7,22z"/>
</g>
</svg>
