<?xml version="1.0" encoding="utf-8"?>
<!-- Generator: Adobe Illustrator 21.1.0, SVG Export Plug-In . SVG Version: 6.00 Build 0)  -->
<svg version="1.1" id="version_x5F_2_x5F_messing" xmlns="http://www.w3.org/2000/svg" xmlns:xlink="http://www.w3.org/1999/xlink"
	 x="0px" y="0px" viewBox="0 0 2000 2000" style="enable-background:new 0 0 2000 2000;" xml:space="preserve">
<style type="text/css">
	.st0{fill:url(#SVGID_1_);}
	.st1{fill:url(#SVGID_2_);}
	.st2{fill:url(#SVGID_3_);}
	.st3{fill:url(#SVGID_4_);}
	.st4{fill:url(#SVGID_5_);}
	.st5{fill:url(#SVGID_6_);}
	.st6{fill:url(#SVGID_7_);}
	.st7{fill:url(#SVGID_8_);}
	.st8{fill:url(#SVGID_9_);}
	.st9{fill:url(#SVGID_10_);}
	.st10{fill:url(#SVGID_11_);}
	.st11{fill:url(#SVGID_12_);}
	.st12{fill:url(#SVGID_13_);}
	.st13{fill:url(#SVGID_14_);}
	.st14{fill:url(#SVGID_15_);}
	.st15{fill:url(#SVGID_16_);}
	.st16{fill:url(#SVGID_17_);}
	.st17{fill:url(#SVGID_18_);}
	.st18{fill:url(#SVGID_19_);}
	.st19{fill:url(#SVGID_20_);}
	.st20{fill:url(#SVGID_21_);}
	.st21{fill:url(#SVGID_22_);}
	.st22{fill:url(#SVGID_23_);}
	.st23{fill:url(#SVGID_24_);}
	.st24{fill:url(#SVGID_25_);}
	.st25{fill:url(#SVGID_26_);}
	.st26{fill:#FFFFFF;stroke:#000000;stroke-miterlimit:10;}
</style>
<g>
	<g>
		<linearGradient id="SVGID_1_" gradientUnits="userSpaceOnUse" x1="695.6611" y1="629.8925" x2="1129.7134" y2="629.8925">
			<stop  offset="0" style="stop-color:#A48A7B"/>
			<stop  offset="0.6" style="stop-color:#FDD69C"/>
			<stop  offset="1" style="stop-color:#B89E56"/>
		</linearGradient>
		<polygon class="st0" points="1128.7,688.9 1129.7,688.7 1121,603.2 760.8,570.8 695.7,631.1 		"/>
		<linearGradient id="SVGID_2_" gradientUnits="userSpaceOnUse" x1="619.7048" y1="716.2365" x2="1140.3779" y2="716.2365">
			<stop  offset="0" style="stop-color:#A48A7B"/>
			<stop  offset="0.6" style="stop-color:#FDD69C"/>
			<stop  offset="1" style="stop-color:#B89E56"/>
		</linearGradient>
		<polygon class="st1" points="1138.7,794 1140.4,793.5 1131.2,702.9 687.7,638.5 619.7,701.3 		"/>
		<linearGradient id="SVGID_3_" gradientUnits="userSpaceOnUse" x1="408.1393" y1="981.6042" x2="1173.8621" y2="981.6042">
			<stop  offset="0" style="stop-color:#A48A7B"/>
			<stop  offset="0.6" style="stop-color:#FDD69C"/>
			<stop  offset="1" style="stop-color:#B89E56"/>
		</linearGradient>
		<polygon class="st2" points="1173.9,1122.6 1164.8,1033.3 472,838 408.1,897.1 1168.7,1125.2 		"/>
		<linearGradient id="SVGID_4_" gradientUnits="userSpaceOnUse" x1="839.2776" y1="471.3556" x2="1111.9827" y2="471.3556">
			<stop  offset="0" style="stop-color:#A48A7B"/>
			<stop  offset="0.6" style="stop-color:#FDD69C"/>
			<stop  offset="1" style="stop-color:#B89E56"/>
		</linearGradient>
		<polygon class="st3" points="1112,514.5 1103.5,431.5 914.9,428.2 839.3,498.2 		"/>
		<linearGradient id="SVGID_5_" gradientUnits="userSpaceOnUse" x1="766.5454" y1="548.1616" x2="1120.1111" y2="548.1616">
			<stop  offset="0" style="stop-color:#A48A7B"/>
			<stop  offset="0.6" style="stop-color:#FDD69C"/>
			<stop  offset="1" style="stop-color:#B89E56"/>
		</linearGradient>
		<polygon class="st4" points="1120.1,594.4 1112.7,521.1 835.4,501.8 766.5,565.5 1118.7,594.6 		"/>
		<linearGradient id="SVGID_6_" gradientUnits="userSpaceOnUse" x1="920.8002" y1="387.2286" x2="1102.8337" y2="387.2286">
			<stop  offset="0" style="stop-color:#A48A7B"/>
			<stop  offset="0.6" style="stop-color:#FDD69C"/>
			<stop  offset="1" style="stop-color:#B89E56"/>
		</linearGradient>
		<polygon class="st5" points="920.8,422.8 1102.8,424.6 1095.4,351.5 999.6,349.9 		"/>
		<linearGradient id="SVGID_7_" gradientUnits="userSpaceOnUse" x1="547.5935" y1="804.6298" x2="1151.0845" y2="804.6298">
			<stop  offset="0" style="stop-color:#A48A7B"/>
			<stop  offset="0.6" style="stop-color:#FDD69C"/>
			<stop  offset="1" style="stop-color:#B89E56"/>
		</linearGradient>
		<polygon class="st6" points="1148.7,899.6 1151.1,898.7 1142.4,812.9 610.7,709.7 547.6,768.1 		"/>
		<linearGradient id="SVGID_8_" gradientUnits="userSpaceOnUse" x1="341.1309" y1="1079.4026" x2="1186.8682" y2="1079.4026">
			<stop  offset="0" style="stop-color:#A48A7B"/>
			<stop  offset="0.6" style="stop-color:#FDD69C"/>
			<stop  offset="1" style="stop-color:#B89E56"/>
		</linearGradient>
		<polygon class="st7" points="1186.9,1250.4 1177,1153 1175.9,1153.6 401.1,903.6 341.1,959.1 1178.7,1255.2 		"/>
		<linearGradient id="SVGID_9_" gradientUnits="userSpaceOnUse" x1="151" y1="1413.0831" x2="1237" y2="1413.0831">
			<stop  offset="0" style="stop-color:#A48A7B"/>
			<stop  offset="0.6" style="stop-color:#FDD69C"/>
			<stop  offset="1" style="stop-color:#B89E56"/>
		</linearGradient>
		<polygon class="st8" points="1219.1,1577.6 207,1083.2 151,1135 1237,1743 1220.1,1576.7 		"/>
		<linearGradient id="SVGID_10_" gradientUnits="userSpaceOnUse" x1="210.0781" y1="1285.3359" x2="1216.6931" y2="1285.3359">
			<stop  offset="0" style="stop-color:#A48A7B"/>
			<stop  offset="0.6" style="stop-color:#FDD69C"/>
			<stop  offset="1" style="stop-color:#B89E56"/>
		</linearGradient>
		<polygon class="st9" points="1211.6,1547.6 1216.7,1543.5 1204.7,1425.7 271.9,1023.1 210.1,1080.3 		"/>
		<linearGradient id="SVGID_11_" gradientUnits="userSpaceOnUse" x1="1006.1387" y1="306.801" x2="1094.691" y2="306.801">
			<stop  offset="0" style="stop-color:#A48A7B"/>
			<stop  offset="0.6" style="stop-color:#FDD69C"/>
			<stop  offset="1" style="stop-color:#B89E56"/>
		</linearGradient>
		<polygon class="st10" points="1093.7,344.6 1094.7,344.6 1087,269 1006.1,343.8 		"/>
		<linearGradient id="SVGID_12_" gradientUnits="userSpaceOnUse" x1="481.0645" y1="890.894" x2="1161.7834" y2="890.894">
			<stop  offset="0" style="stop-color:#A48A7B"/>
			<stop  offset="0.6" style="stop-color:#FDD69C"/>
			<stop  offset="1" style="stop-color:#B89E56"/>
		</linearGradient>
		<polygon class="st11" points="538.4,776.6 481.1,829.6 1158.7,1005.2 1161.8,1003.9 1153.6,923.1 		"/>
		<linearGradient id="SVGID_13_" gradientUnits="userSpaceOnUse" x1="276.6719" y1="1180.8433" x2="1201.8289" y2="1180.8433">
			<stop  offset="0" style="stop-color:#A48A7B"/>
			<stop  offset="0.6" style="stop-color:#FDD69C"/>
			<stop  offset="1" style="stop-color:#B89E56"/>
		</linearGradient>
		<polygon class="st12" points="1201.8,1397.4 1190,1281 1185.9,1283.6 335.7,964.1 276.7,1018.7 1201.6,1397.6 		"/>
	</g>
	<g>
		<linearGradient id="SVGID_14_" gradientUnits="userSpaceOnUse" x1="1095.3989" y1="386.6776" x2="1226.9745" y2="386.6776">
			<stop  offset="0.2054" style="stop-color:#FDD69C"/>
			<stop  offset="0.5838" style="stop-color:#A48A7B"/>
			<stop  offset="1" style="stop-color:#B89E56"/>
		</linearGradient>
		<polygon class="st13" points="1163.1,348.8 1100.9,351.6 1095.4,351.5 1102.8,424.6 1103.7,424.6 1227,415.6 		"/>
		<linearGradient id="SVGID_15_" gradientUnits="userSpaceOnUse" x1="1121.0089" y1="627.548" x2="1424.8616" y2="627.548">
			<stop  offset="0.2054" style="stop-color:#FDD69C"/>
			<stop  offset="0.5838" style="stop-color:#A48A7B"/>
			<stop  offset="1" style="stop-color:#B89E56"/>
		</linearGradient>
		<polygon class="st14" points="1424.9,622.9 1370.9,566.4 1125.9,603.6 1121,603.2 1129.7,688.7 		"/>
		<linearGradient id="SVGID_16_" gradientUnits="userSpaceOnUse" x1="1112.6504" y1="547.0195" x2="1365.3662" y2="547.0195">
			<stop  offset="0.2054" style="stop-color:#FDD69C"/>
			<stop  offset="0.5838" style="stop-color:#A48A7B"/>
			<stop  offset="1" style="stop-color:#B89E56"/>
		</linearGradient>
		<polygon class="st15" points="1112.7,521.1 1120.1,594.4 1365.4,560.6 1307.2,499.7 1120.9,521.6 		"/>
		<linearGradient id="SVGID_17_" gradientUnits="userSpaceOnUse" x1="1131.1602" y1="712.0896" x2="1488.677" y2="712.0896">
			<stop  offset="0.2054" style="stop-color:#FDD69C"/>
			<stop  offset="0.5838" style="stop-color:#A48A7B"/>
			<stop  offset="1" style="stop-color:#B89E56"/>
		</linearGradient>
		<polygon class="st16" points="1488.7,689.8 1432.3,630.7 1135.9,703.6 1131.2,702.9 1140.4,793.5 		"/>
		<linearGradient id="SVGID_18_" gradientUnits="userSpaceOnUse" x1="1204.7078" y1="1268.0602" x2="1831.5259" y2="1268.0602">
			<stop  offset="0.2054" style="stop-color:#FDD69C"/>
			<stop  offset="0.5838" style="stop-color:#A48A7B"/>
			<stop  offset="1" style="stop-color:#B89E56"/>
		</linearGradient>
		<polygon class="st17" points="1777.9,992.7 1209.1,1427.6 1204.7,1425.7 1216.7,1543.5 1831.5,1048.9 		"/>
		<linearGradient id="SVGID_19_" gradientUnits="userSpaceOnUse" x1="1103.5369" y1="468.0278" x2="1302.5652" y2="468.0278">
			<stop  offset="0.2054" style="stop-color:#FDD69C"/>
			<stop  offset="0.5838" style="stop-color:#A48A7B"/>
			<stop  offset="1" style="stop-color:#B89E56"/>
		</linearGradient>
		<polygon class="st18" points="1113.7,514.6 1302.6,494.8 1232.5,421.5 1110.9,431.6 1103.5,431.5 1112,514.5 		"/>
		<linearGradient id="SVGID_20_" gradientUnits="userSpaceOnUse" x1="1153.5621" y1="882.8167" x2="1607.2659" y2="882.8167">
			<stop  offset="0.2054" style="stop-color:#FDD69C"/>
			<stop  offset="0.5838" style="stop-color:#A48A7B"/>
			<stop  offset="1" style="stop-color:#B89E56"/>
		</linearGradient>
		<polygon class="st19" points="1155.9,923.6 1153.6,923.1 1161.8,1003.9 1607.3,814 1557.4,761.8 		"/>
		<linearGradient id="SVGID_21_" gradientUnits="userSpaceOnUse" x1="1087" y1="306.7885" x2="1157.5803" y2="306.7885">
			<stop  offset="0.2054" style="stop-color:#FDD69C"/>
			<stop  offset="0.5838" style="stop-color:#A48A7B"/>
			<stop  offset="1" style="stop-color:#B89E56"/>
		</linearGradient>
		<polygon class="st20" points="1157.6,342.9 1087,269 1094.7,344.6 		"/>
		<linearGradient id="SVGID_22_" gradientUnits="userSpaceOnUse" x1="1164.781" y1="972.3926" x2="1663.9414" y2="972.3926">
			<stop  offset="0.2054" style="stop-color:#FDD69C"/>
			<stop  offset="0.5838" style="stop-color:#A48A7B"/>
			<stop  offset="1" style="stop-color:#B89E56"/>
		</linearGradient>
		<polygon class="st21" points="1164.8,1033.3 1173.9,1122.6 1663.9,873.3 1615.1,822.2 1165.9,1033.6 		"/>
		<linearGradient id="SVGID_23_" gradientUnits="userSpaceOnUse" x1="1220.0775" y1="1397.3033" x2="1887" y2="1397.3033">
			<stop  offset="0.2054" style="stop-color:#FDD69C"/>
			<stop  offset="0.5838" style="stop-color:#A48A7B"/>
			<stop  offset="1" style="stop-color:#B89E56"/>
		</linearGradient>
		<polygon class="st22" points="1220.1,1576.7 1237,1743 1887,1107 1834.1,1051.6 		"/>
		<linearGradient id="SVGID_24_" gradientUnits="userSpaceOnUse" x1="1189.9846" y1="1168.243" x2="1773.8728" y2="1168.243">
			<stop  offset="0.2054" style="stop-color:#FDD69C"/>
			<stop  offset="0.5838" style="stop-color:#A48A7B"/>
			<stop  offset="1" style="stop-color:#B89E56"/>
		</linearGradient>
		<polygon class="st23" points="1773.9,988.5 1726.7,939.1 1190,1281 1201.8,1397.4 		"/>
		<linearGradient id="SVGID_25_" gradientUnits="userSpaceOnUse" x1="1176.9607" y1="1065.0454" x2="1722.1565" y2="1065.0454">
			<stop  offset="0.2054" style="stop-color:#FDD69C"/>
			<stop  offset="0.5838" style="stop-color:#A48A7B"/>
			<stop  offset="1" style="stop-color:#B89E56"/>
		</linearGradient>
		<polygon class="st24" points="1177,1153 1186.9,1250.4 1722.2,934.3 1670,879.7 		"/>
		<linearGradient id="SVGID_26_" gradientUnits="userSpaceOnUse" x1="1142.3545" y1="798.4727" x2="1549.3601" y2="798.4727">
			<stop  offset="0.2054" style="stop-color:#FDD69C"/>
			<stop  offset="0.5838" style="stop-color:#A48A7B"/>
			<stop  offset="1" style="stop-color:#B89E56"/>
		</linearGradient>
		<polygon class="st25" points="1549.4,753.3 1496.7,698.2 1145.9,813.6 1142.4,812.9 1151.1,898.7 		"/>
	</g>
</g>
<path class="st26" d="M387,795"/>
</svg>
