<?xml version="1.0" encoding="utf-8"?>
<!-- Generator: Adobe Illustrator 21.1.0, SVG Export Plug-In . SVG Version: 6.00 Build 0)  -->
<svg version="1.1" id="version_x5F_2_x5F_black" xmlns="http://www.w3.org/2000/svg" xmlns:xlink="http://www.w3.org/1999/xlink"
	 x="0px" y="0px" viewBox="0 0 2000 2000" style="enable-background:new 0 0 2000 2000;" xml:space="preserve">
<style type="text/css">
	.st0{fill:#FFFFFF;stroke:#000000;stroke-miterlimit:10;}
</style>
<g>
	<g>
		<polygon points="1128.7,688.9 1129.7,688.7 1121,603.2 760.8,570.8 695.7,631.1 		"/>
		<polygon points="1138.7,794 1140.4,793.5 1131.2,702.9 687.7,638.5 619.7,701.3 		"/>
		<polygon points="1173.9,1122.6 1164.8,1033.3 472,838 408.1,897.1 1168.7,1125.2 		"/>
		<polygon points="1112,514.5 1103.5,431.5 914.9,428.2 839.3,498.2 		"/>
		<polygon points="1120.1,594.4 1112.7,521.1 835.4,501.8 766.5,565.5 1118.7,594.6 		"/>
		<polygon points="920.8,422.8 1102.8,424.6 1095.4,351.5 999.6,349.9 		"/>
		<polygon points="1148.7,899.6 1151.1,898.7 1142.4,812.9 610.7,709.7 547.6,768.1 		"/>
		<polygon points="1186.9,1250.4 1177,1153 1175.9,1153.6 401.1,903.6 341.1,959.1 1178.7,1255.2 		"/>
		<polygon points="1219.1,1577.6 207,1083.2 151,1135 1237,1743 1220.1,1576.7 		"/>
		<polygon points="1211.6,1547.6 1216.7,1543.5 1204.7,1425.7 271.9,1023.1 210.1,1080.3 		"/>
		<polygon points="1093.7,344.6 1094.7,344.6 1087,269 1006.1,343.8 		"/>
		<polygon points="538.4,776.6 481.1,829.6 1158.7,1005.2 1161.8,1003.9 1153.6,923.1 		"/>
		<polygon points="1201.8,1397.4 1190,1281 1185.9,1283.6 335.7,964.1 276.7,1018.7 1201.6,1397.6 		"/>
	</g>
	<g>
		<polygon points="1163.1,348.8 1100.9,351.6 1095.4,351.5 1102.8,424.6 1103.7,424.6 1227,415.6 		"/>
		<polygon points="1424.9,622.9 1370.9,566.4 1125.9,603.6 1121,603.2 1129.7,688.7 		"/>
		<polygon points="1112.7,521.1 1120.1,594.4 1365.4,560.6 1307.2,499.7 1120.9,521.6 		"/>
		<polygon points="1488.7,689.8 1432.3,630.7 1135.9,703.6 1131.2,702.9 1140.4,793.5 		"/>
		<polygon points="1777.9,992.7 1209.1,1427.6 1204.7,1425.7 1216.7,1543.5 1831.5,1048.9 		"/>
		<polygon points="1113.7,514.6 1302.6,494.8 1232.5,421.5 1110.9,431.6 1103.5,431.5 1112,514.5 		"/>
		<polygon points="1155.9,923.6 1153.6,923.1 1161.8,1003.9 1607.3,814 1557.4,761.8 		"/>
		<polygon points="1157.6,342.9 1087,269 1094.7,344.6 		"/>
		<polygon points="1164.8,1033.3 1173.9,1122.6 1663.9,873.3 1615.1,822.2 1165.9,1033.6 		"/>
		<polygon points="1220.1,1576.7 1237,1743 1887,1107 1834.1,1051.6 		"/>
		<polygon points="1773.9,988.5 1726.7,939.1 1190,1281 1201.8,1397.4 		"/>
		<polygon points="1177,1153 1186.9,1250.4 1722.2,934.3 1670,879.7 		"/>
		<polygon points="1549.4,753.3 1496.7,698.2 1145.9,813.6 1142.4,812.9 1151.1,898.7 		"/>
	</g>
</g>
<path class="st0" d="M387,795"/>
</svg>
