<?xml version="1.0" encoding="utf-8"?>
<!-- Generator: Adobe Illustrator 21.1.0, SVG Export Plug-In . SVG Version: 6.00 Build 0)  -->
<svg version="1.1" id="version_x5F_1_x5F_messing" xmlns="http://www.w3.org/2000/svg" xmlns:xlink="http://www.w3.org/1999/xlink"
	 x="0px" y="0px" viewBox="0 0 2000 2000" style="enable-background:new 0 0 2000 2000;" xml:space="preserve">
<style type="text/css">
	.st0{fill:url(#SVGID_1_);}
	.st1{fill:url(#SVGID_2_);}
	.st2{fill:url(#SVGID_3_);}
	.st3{fill:url(#SVGID_4_);}
	.st4{fill:url(#SVGID_5_);}
	.st5{fill:url(#SVGID_6_);}
	.st6{fill:url(#SVGID_7_);}
	.st7{fill:url(#SVGID_8_);}
	.st8{fill:url(#SVGID_9_);}
	.st9{fill:url(#SVGID_10_);}
	.st10{fill:url(#SVGID_11_);}
	.st11{fill:url(#SVGID_12_);}
	.st12{fill:url(#SVGID_13_);}
	.st13{fill:url(#SVGID_14_);}
	.st14{fill:#FFFFFF;stroke:#000000;stroke-miterlimit:10;}
</style>
<g>
	<g>
		<linearGradient id="SVGID_1_" gradientUnits="userSpaceOnUse" x1="151" y1="1413.0831" x2="1237" y2="1413.0831">
			<stop  offset="0" style="stop-color:#A48A7B"/>
			<stop  offset="0.6" style="stop-color:#FDD69C"/>
			<stop  offset="1" style="stop-color:#B89E56"/>
		</linearGradient>
		<polygon class="st0" points="1219.1,1577.6 207,1083.2 151,1135 1237,1743 1220.1,1576.7 		"/>
		<g>
			<g>
				<linearGradient id="SVGID_2_" gradientUnits="userSpaceOnUse" x1="619.7048" y1="682.4262" x2="1140.3779" y2="682.4262">
					<stop  offset="0" style="stop-color:#A48A7B"/>
					<stop  offset="0.6" style="stop-color:#FDD69C"/>
					<stop  offset="1" style="stop-color:#B89E56"/>
				</linearGradient>
				<polygon class="st1" points="1138.7,794 1140.4,793.5 1131.2,702.9 732.2,644.9 740.2,637 1128.7,688.9 1129.7,688.7 
					1121,603.2 760.8,570.8 619.7,701.3 				"/>
				<linearGradient id="SVGID_3_" gradientUnits="userSpaceOnUse" x1="481.0645" y1="857.4186" x2="1161.7836" y2="857.4186">
					<stop  offset="0" style="stop-color:#A48A7B"/>
					<stop  offset="0.6" style="stop-color:#FDD69C"/>
					<stop  offset="1" style="stop-color:#B89E56"/>
				</linearGradient>
				<polygon class="st2" points="1158.7,1005.2 1161.8,1003.9 1153.6,923.1 588.3,788.5 597.8,779.1 1148.7,899.6 1151.1,898.7 
					1142.4,812.9 610.7,709.7 481.1,829.6 				"/>
				<linearGradient id="SVGID_4_" gradientUnits="userSpaceOnUse" x1="766.5454" y1="511.3875" x2="1120.1111" y2="511.3875">
					<stop  offset="0" style="stop-color:#A48A7B"/>
					<stop  offset="0.6" style="stop-color:#FDD69C"/>
					<stop  offset="1" style="stop-color:#B89E56"/>
				</linearGradient>
				<polygon class="st3" points="1120.1,594.4 1112.7,521.1 873.1,504.4 877,500.5 1112,514.5 1103.5,431.5 914.9,428.2 
					766.5,565.5 1118.7,594.6 				"/>
				<linearGradient id="SVGID_5_" gradientUnits="userSpaceOnUse" x1="341.1309" y1="1046.6042" x2="1186.8682" y2="1046.6042">
					<stop  offset="0" style="stop-color:#A48A7B"/>
					<stop  offset="0.6" style="stop-color:#FDD69C"/>
					<stop  offset="1" style="stop-color:#B89E56"/>
				</linearGradient>
				<polygon class="st4" points="1175.9,1153.6 455.4,921.2 463,913.5 1168.7,1125.2 1173.9,1122.6 1164.8,1033.3 472,838 
					341.1,959.1 1178.7,1255.2 1186.9,1250.4 1177,1153 				"/>
				<linearGradient id="SVGID_6_" gradientUnits="userSpaceOnUse" x1="920.8002" y1="346.7965" x2="1102.8337" y2="346.7965">
					<stop  offset="0" style="stop-color:#A48A7B"/>
					<stop  offset="0.6" style="stop-color:#FDD69C"/>
					<stop  offset="1" style="stop-color:#B89E56"/>
				</linearGradient>
				<polygon class="st5" points="1102.8,424.6 1095.4,351.5 1027.4,350.3 1033.7,344.1 1093.7,344.6 1094.7,344.6 1087,269 
					920.8,422.8 				"/>
			</g>
			<linearGradient id="SVGID_7_" gradientUnits="userSpaceOnUse" x1="210.0781" y1="1255.8433" x2="1216.693" y2="1255.8433">
				<stop  offset="0" style="stop-color:#A48A7B"/>
				<stop  offset="0.6" style="stop-color:#FDD69C"/>
				<stop  offset="1" style="stop-color:#B89E56"/>
			</linearGradient>
			<polygon class="st6" points="328.7,1047.6 334.1,1042.2 1201.6,1397.6 1201.8,1397.4 1190,1281 1185.9,1283.6 335.7,964.1 
				210.1,1080.3 1211.6,1547.6 1216.7,1543.5 1204.7,1425.7 			"/>
		</g>
	</g>
	<g>
		<linearGradient id="SVGID_8_" gradientUnits="userSpaceOnUse" x1="1204.7078" y1="1367.8351" x2="1887" y2="1367.8351">
			<stop  offset="0.2054" style="stop-color:#FDD69C"/>
			<stop  offset="0.5838" style="stop-color:#A48A7B"/>
			<stop  offset="1" style="stop-color:#B89E56"/>
		</linearGradient>
		<polygon class="st7" points="1209.1,1427.6 1204.7,1425.7 1216.7,1543.5 1774.5,1094.7 1778.4,1099.2 1220.1,1576.7 1237,1743 
			1887,1107 1777.9,992.7 		"/>
		<g>
			<linearGradient id="SVGID_9_" gradientUnits="userSpaceOnUse" x1="1112.6504" y1="594.1989" x2="1424.8616" y2="594.1989">
				<stop  offset="0.2054" style="stop-color:#FDD69C"/>
				<stop  offset="0.5838" style="stop-color:#A48A7B"/>
				<stop  offset="1" style="stop-color:#B89E56"/>
			</linearGradient>
			<polygon class="st8" points="1121,603.2 1129.7,688.7 1424.9,622.9 1307.2,499.7 1120.9,521.6 1112.7,521.1 1120.1,594.4 
				1316.2,567.4 1321.8,573.8 1125.9,603.6 			"/>
			<linearGradient id="SVGID_10_" gradientUnits="userSpaceOnUse" x1="1131.1602" y1="764.6943" x2="1549.3601" y2="764.6943">
				<stop  offset="0.2054" style="stop-color:#FDD69C"/>
				<stop  offset="0.5838" style="stop-color:#A48A7B"/>
				<stop  offset="1" style="stop-color:#B89E56"/>
			</linearGradient>
			<polygon class="st9" points="1142.4,812.9 1151.1,898.7 1549.4,753.3 1432.3,630.7 1135.9,703.6 1131.2,702.9 1140.4,793.5 
				1436.2,705.4 1444.8,715.3 1145.9,813.6 			"/>
			<linearGradient id="SVGID_11_" gradientUnits="userSpaceOnUse" x1="1095.3989" y1="431.6776" x2="1302.5652" y2="431.6776">
				<stop  offset="0.2054" style="stop-color:#FDD69C"/>
				<stop  offset="0.5838" style="stop-color:#A48A7B"/>
				<stop  offset="1" style="stop-color:#B89E56"/>
			</linearGradient>
			<polygon class="st10" points="1103.5,431.5 1112,514.5 1113.7,514.6 1302.6,494.8 1163.1,348.8 1100.9,351.6 1095.4,351.5 
				1102.8,424.6 1103.7,424.6 1186.8,418.5 1192.3,424.8 1110.9,431.6 			"/>
			<linearGradient id="SVGID_12_" gradientUnits="userSpaceOnUse" x1="1176.9608" y1="1138.5526" x2="1773.8728" y2="1138.5526">
				<stop  offset="0.2054" style="stop-color:#FDD69C"/>
				<stop  offset="0.5838" style="stop-color:#A48A7B"/>
				<stop  offset="1" style="stop-color:#B89E56"/>
			</linearGradient>
			<polygon class="st11" points="1177,1153 1186.9,1250.4 1664.6,968.3 1670.4,975 1190,1281 1201.8,1397.4 1773.9,988.5 
				1670,879.7 			"/>
			<linearGradient id="SVGID_13_" gradientUnits="userSpaceOnUse" x1="1087" y1="306.7885" x2="1157.5803" y2="306.7885">
				<stop  offset="0.2054" style="stop-color:#FDD69C"/>
				<stop  offset="0.5838" style="stop-color:#A48A7B"/>
				<stop  offset="1" style="stop-color:#B89E56"/>
			</linearGradient>
			<polygon class="st12" points="1157.6,342.9 1087,269 1094.7,344.6 			"/>
			<linearGradient id="SVGID_14_" gradientUnits="userSpaceOnUse" x1="1153.5623" y1="942.1628" x2="1663.9414" y2="942.1628">
				<stop  offset="0.2054" style="stop-color:#FDD69C"/>
				<stop  offset="0.5838" style="stop-color:#A48A7B"/>
				<stop  offset="1" style="stop-color:#B89E56"/>
			</linearGradient>
			<polygon class="st13" points="1557.4,761.8 1155.9,923.6 1153.6,923.1 1161.8,1003.9 1551.3,837.8 1560.2,848.1 1165.9,1033.6 
				1164.8,1033.3 1173.9,1122.6 1663.9,873.3 			"/>
		</g>
	</g>
</g>
<path class="st14" d="M387,795"/>
</svg>
